PathFileType	4	(X/Y/Z)	 s10c0201.trc
DataRate	CameraRate	NumFrames	NumMarkers	Units	OrigDataRate	OrigDataStartFrame	OrigNumFrames
200	200	4	50	mm	200	1251	2000
Frame#	Time	racr			lacr			c7			jug			rlel			rdr			llel			ldr			s2			lic			ric			lasi			rasi			rpsi			lpsi			rgt			lgt			rth1			rth2			rth3			rth4			rlfc			rmfc			rsh1			rsh2			rsh3			rsh4			rlmal			rmmal			rcal			rtoe			rmt5			lth1			lth2			lth4			lth3			llfc			lmfc			llmal			lmmal			lcal			lmt5			lsh1			lsh2			lsh3			lsh4			ltoe			SBIKE			LBIKE			RBIKE			
		X1	Y1	Z1	X2	Y2	Z2	X3	Y3	Z3	X4	Y4	Z4	X5	Y5	Z5	X6	Y6	Z6	X7	Y7	Z7	X8	Y8	Z8	X9	Y9	Z9	X10	Y10	Z10	X11	Y11	Z11	X12	Y12	Z12	X13	Y13	Z13	X14	Y14	Z14	X15	Y15	Z15	X16	Y16	Z16	X17	Y17	Z17	X18	Y18	Z18	X19	Y19	Z19	X20	Y20	Z20	X21	Y21	Z21	X22	Y22	Z22	X23	Y23	Z23	X24	Y24	Z24	X25	Y25	Z25	X26	Y26	Z26	X27	Y27	Z27	X28	Y28	Z28	X29	Y29	Z29	X30	Y30	Z30	X31	Y31	Z31	X32	Y32	Z32	X33	Y33	Z33	X34	Y34	Z34	X35	Y35	Z35	X36	Y36	Z36	X37	Y37	Z37	X38	Y38	Z38	X39	Y39	Z39	X40	Y40	Z40	X41	Y41	Z41	X42	Y42	Z42	X43	Y43	Z43	X44	Y44	Z44	X45	Y45	Z45	X46	Y46	Z46	X47	Y47	Z47	X48	Y48	Z48	X49	Y49	Z49	X50	Y50	Z50	
1251	6.2550	427.436598	1258.821178	-18.566138	473.605975	1271.195013	-305.759084	402.286157	1317.532875	-166.347458	404.548270	1171.295956	-165.915931	416.281283	1009.596053	81.135778	599.967530	912.328835	8.800289	444.880832	1029.782028	-457.296395	608.549249	904.580300	-372.100747	-112.117225	1095.390258	-225.307614	60.180693	1116.177956	-367.584203	54.849306	1123.882655	-61.671982	86.715620	1033.442803	-334.329613	66.219202	1035.658887	-81.955350	-77.466571	1154.919155	-167.804340	-60.963772	1161.478106	-278.654356	-42.305176	999.964849	-34.477726	-26.506399	978.103334	-409.681589	63.042365	882.449301	-7.952349	144.173556	846.718513	-17.635691	193.356830	777.244877	-28.371063	166.645637	876.787812	-22.015541	279.190349	715.354560	-41.080787	275.446237	703.238771	-155.751117	231.731527	607.341747	-13.661264	247.794431	519.980489	-23.078865	218.904817	438.791084	-28.264447	279.978409	520.304720	-44.306904	204.681949	337.313237	-42.048541	229.135918	358.311663	-122.865137	156.464065	307.847935	-90.518362	398.387090	319.719753	-79.197769	318.846451	280.903296	-19.726383	75.589733	884.826208	-416.721561	155.912712	858.033333	-396.658110	173.918463	888.318189	-386.177431	214.032861	792.019262	-384.232293	293.761968	717.243918	-357.111299	273.030309	710.425020	-236.808839	-8.698345	496.216538	-375.213785	0.125063	482.672307	-295.375522	-73.197068	500.243605	-333.515219	28.011630	354.009414	-397.025487	193.208360	659.002662	-396.115111	146.023850	584.604052	-382.151508	66.396498	544.196057	-384.126127	165.016068	566.643452	-354.231860	108.348626	322.035878	-339.064038	-204.994817	833.901279	-224.047986	-78.235631	81.707173	-423.717356	-102.696028	80.376985	-24.354070	
1252	6.2600	428.356821	1258.517255	-19.746489	472.042361	1274.257542	-307.312787	401.692422	1318.245374	-167.043810	406.333064	1172.188594	-168.394912	416.314040	1009.561408	79.142092	600.294935	912.353464	9.481583	444.576484	1031.491393	-457.232371	608.114002	904.722886	-372.094376	-111.255359	1092.842997	-224.664194	59.959315	1114.483877	-366.939398	56.303193	1121.027167	-62.125127	86.322938	1030.768645	-333.403669	67.860957	1033.740483	-81.105840	-77.342586	1151.333169	-166.392064	-61.455094	1158.855439	-277.497652	-42.330221	994.559255	-33.335873	-23.918427	975.998175	-409.145291	60.981205	875.839915	-7.058163	141.362740	838.737922	-17.283550	189.117156	768.242223	-29.373926	164.531085	868.533008	-21.169595	272.885474	706.296351	-41.958827	269.336372	694.110284	-156.419417	224.785984	597.673726	-13.945623	242.194562	510.436777	-23.053388	214.637927	428.927893	-28.405294	274.855379	511.401629	-43.540820	202.040674	326.969236	-42.275388	226.768346	347.907280	-123.067426	153.875089	297.741200	-90.921293	395.943620	308.666305	-79.306977	316.174097	270.231847	-19.868884	81.256325	885.790550	-415.653869	161.924197	861.340041	-394.224209	178.784716	892.043237	-382.955745	221.911822	796.981262	-381.459170	302.382740	725.651167	-354.249638	282.926295	717.598172	-233.915540	-2.839165	506.579493	-374.593907	5.075813	493.211384	-295.169204	-66.892884	512.286253	-333.412127	31.450192	364.105459	-396.887084	200.873527	667.442509	-394.505425	152.957220	593.281110	-380.862755	73.067578	553.937252	-383.491361	171.591650	575.234276	-352.871030	111.071689	330.523720	-338.944008	-205.006705	833.930268	-223.995531	-78.212008	81.716141	-423.728159	-102.692652	80.391468	-24.367434	
1253	6.2650	429.303998	1258.209797	-20.844556	470.538800	1276.967677	-308.820130	401.094857	1318.926145	-167.896703	407.986098	1173.092764	-170.771583	416.239398	1009.554913	77.115901	600.752111	912.456370	10.296118	444.258670	1032.993614	-457.382977	607.922765	905.036122	-372.441360	-110.747906	1090.750193	-224.098021	59.657043	1113.090971	-366.271309	57.390880	1118.371261	-62.529298	85.899994	1028.342702	-332.710382	69.148978	1031.672735	-80.173834	-76.656080	1147.468517	-165.210415	-61.990104	1156.169760	-276.360435	-42.572493	989.527613	-31.602336	-21.298929	973.937159	-408.626802	58.585905	869.730492	-6.469033	138.130546	830.758573	-17.087510	184.426581	759.944061	-30.201646	162.251328	860.644301	-20.470517	266.770267	696.698061	-43.010486	263.440759	685.404555	-157.016431	217.888799	588.480634	-14.358884	236.291021	501.383133	-23.176446	209.691067	419.610244	-28.822389	269.289257	502.564283	-43.172796	198.725518	317.041765	-42.479627	223.723633	337.806825	-123.361089	151.395988	288.104302	-91.742631	392.954043	297.890731	-78.816235	312.863991	259.817868	-20.221895	86.850265	886.725048	-413.939409	168.061130	865.188816	-391.426996	183.937444	896.904570	-380.766246	229.561716	802.552493	-378.080660	311.087328	735.127510	-351.448151	289.772494	724.344781	-231.791963	4.325849	517.481891	-374.104421	11.213428	503.414713	-294.592702	-59.741231	524.130969	-333.309014	35.634484	373.912142	-396.801770	208.700002	676.188029	-392.659049	160.247580	602.122957	-379.371011	80.250163	563.351703	-382.693780	178.697438	584.103394	-351.290261	114.403407	338.631342	-338.681455	-205.016407	833.929043	-223.988159	-78.204933	81.749204	-423.714300	-102.701225	80.387851	-24.369474	
1254	6.2700	430.197827	1257.955951	-21.921801	469.151761	1279.432618	-310.380426	400.500349	1319.641709	-169.020782	409.521573	1174.062446	-173.191117	416.216558	1009.511650	75.135463	601.097227	912.595172	11.063094	443.911053	1034.349401	-457.808489	608.013814	905.446385	-373.090565	-110.774140	1087.845988	-222.535540	59.299298	1111.593056	-365.585682	58.431962	1115.815687	-62.974307	85.524346	1026.181227	-331.811018	70.139752	1029.434349	-79.149910	-76.606170	1144.119953	-163.235434	-62.700159	1153.566126	-275.097104	-42.983933	984.619503	-29.726334	-18.078113	971.909940	-408.355993	56.742838	865.904748	-3.870164	135.048914	824.709172	-16.583648	179.240043	752.338591	-30.709988	159.694949	853.362992	-19.782336	260.284909	687.722931	-43.984120	257.618814	677.043834	-157.406873	211.113718	579.609400	-14.632884	230.053748	492.597357	-23.451804	203.941193	410.681885	-29.426030	263.180384	493.984094	-42.957915	194.989856	307.548017	-43.018876	219.123288	326.864633	-124.009428	147.221532	279.819691	-91.625172	389.430734	287.108502	-79.170368	308.924829	249.680688	-20.537149	93.232926	888.529726	-412.758585	174.063993	869.810830	-388.502248	188.486304	901.880677	-376.562135	238.649692	809.963138	-376.294810	319.541335	745.457710	-348.835468	297.359649	732.409640	-229.592072	11.808185	527.866662	-373.257736	18.192618	513.465346	-293.872478	-51.681038	535.815566	-333.138744	40.423823	383.550611	-396.569769	215.991788	684.784032	-390.121564	168.070486	611.335708	-377.708108	87.887144	572.614732	-381.696766	186.225443	593.112511	-349.635676	118.306529	346.533265	-338.511584	-205.012682	833.948380	-223.934767	-78.229053	81.708719	-423.736761	-102.698214	80.368929	-24.358222	
